# xmcd
#
# Track frame offsets:
# 150
# 17106
# 37119
# 58450
# 76292
# 92954
# 106207
# 112905
# 125935
# 142484
# 158365
# 176742
# 193397
# 216248
# 236984
# 254362
#
# Disc length: 3601 seconds
#
# Revision: 0
# Processed by: cddbd v1.5.1PL2 Copyright (c) Steve Scherf et al.
# Submitted via: Audion 3.0.2 (http://www.panic.com/audion/)
#
DISCID=f90e0f10
DTITLE=booba - west side
DYEAR=1900
DGENRE=
TTITLE0=hi
TTITLE1=jk
TTITLE2=lh
TTITLE3=hl
TTITLE4=hl
TTITLE5=h
TTITLE6=jhk
TTITLE7=garde la peche
TTITLE8=lhbv
TTITLE9=vh
TTITLE10=boolbi
TTITLE11=vhl
TTITLE12=hlv
TTITLE13=bjlhvjl
TTITLE14=vjl
TTITLE15=vh
EXTD=
EXTT0=
EXTT1=
EXTT2=
EXTT3=
EXTT4=
EXTT5=
EXTT6=
EXTT7=
EXTT8=
EXTT9=
EXTT10=
EXTT11=
EXTT12=
EXTT13=
EXTT14=
EXTT15=
PLAYORDER=
